# xmcd
#
# Track frame offsets: 
#        150
#        13857
#        34064
#        60696
#        103884
#        115243
#        152458
#        189604
#        233424
#
# Disc length: 3915 seconds
#
# Revision: 2
# Processed by: cddbd v1.5.2PL0 Copyright (c) Steve Scherf et al.
# Submitted via: ExactAudioCopy v1.1
#
DISCID=6c0f4909
DTITLE=Various Artist - Iedereen Klassiek - Muziek Voor De 4 Temperamenten - 
DTITLE=CD 7 (Passie)
DYEAR=2010
DGENRE=Classical
TTITLE0=S. Rachmaninov - Moment Musical In E Op.16 Nr.4
TTITLE1=E. Elgar - Lento - Allegro Molto Uit Concerto In E Voor Cello 
TTITLE1=En Orkest Op.85
TTITLE2=R. Wagner (Orkestratie H.- W. Henze) - Im Treibhaus Uit Wesend
TTITLE2=onck Lieder
TTITLE3=M. Ravel - Scarbo Uit Gaspard De La Nuit
TTITLE4=F. Schubert - Wandrers Nachtlied II D768
TTITLE5=F. Chopin - Allegro Con Fuoco Uit Pianotrio In G Op.8
TTITLE6=P. De Sarasate - Zigeunerweisen
TTITLE7=J. Sibelius - De Zwaan Van Tuonela Uit Lemminkainen Suite Op.2
TTITLE7=2
TTITLE8=E. Grieg - Allegro Molto Moderato Uit Concerto In A Voor Piano
TTITLE8=En Orkest Op.16
EXTD=
EXTT0=
EXTT1=
EXTT2=
EXTT3=
EXTT4=
EXTT5=
EXTT6=
EXTT7=
EXTT8=
PLAYORDER=
